<svg xmlns="http://www.w3.org/2000/svg" width="64" height="64" viewBox="0 0 64 64" fill="none">
  <rect width="64" height="64" rx="16" fill="#18202b" />
  <path
    d="M20 14C18.8954 14 18 14.8954 18 16V48C18 49.1046 18.8954 50 20 50H44C45.1046 50 46 49.1046 46 48V24.8284C46 24.298 45.7893 23.7893 45.4142 23.4142L36.5858 14.5858C36.2107 14.2107 35.702 14 35.1716 14H20Z"
    fill="#f3f6fb"
  />
  <path d="M36 14V23C36 24.1046 36.8954 25 38 25H46" fill="#d7deea" />
  <circle cx="31.5" cy="37.5" r="6.5" fill="#5e6b7f" />
  <path
    d="M31.5 26L33.0848 29.1206L36.5307 28.807L36.937 32.2438L40 33.5L38.0937 36.3895L40 39.279L36.937 40.5353L36.5307 43.973L33.0848 43.6594L31.5 46.78L29.9152 43.6594L26.4693 43.973L26.063 40.5353L23 39.279L24.9063 36.3895L23 33.5L26.063 32.2438L26.4693 28.807L29.9152 29.1206L31.5 26Z"
    fill="#7b879a"
  />
  <circle cx="31.5" cy="36.5" r="3.2" fill="#f3f6fb" />
  <path
    d="M23.5 20.5H31.5"
    stroke="#7b879a"
    stroke-width="2.4"
    stroke-linecap="round"
  />
  <path
    d="M23.5 25.5H29.5"
    stroke="#7b879a"
    stroke-width="2.4"
    stroke-linecap="round"
  />
</svg>
